<svg xmlns="http://www.w3.org/2000/svg" viewBox="0 0 64 64">
  <rect width="64" height="64" rx="14" fill="#246b68"/>
  <path d="M32 8 50 16v13c0 12.1-7.4 21.9-18 27-10.6-5.1-18-14.9-18-27V16l18-8Z" fill="#f7fbf9"/>
  <path d="M32 13.7 45 19.5v9.6c0 8.6-5 15.6-13 20-8-4.4-13-11.4-13-20v-9.6l13-5.8Z" fill="#d8ebe7"/>
  <path d="M25 22h12l5 5v15H25V22Z" fill="#ffffff"/>
  <path d="M37 22v6h5" fill="none" stroke="#246b68" stroke-width="2" stroke-linejoin="round"/>
  <path d="M29 31h9M29 36h9M29 41h6" stroke="#246b68" stroke-width="2.4" stroke-linecap="round"/>
</svg>
